# File produced by Open Asset Import Library (http://www.assimp.sf.net)
# (assimp v5.0.1588609223)

mtllib result.mtl

# 24 vertex positions
v  396.17798 -6.4545588e-05 -32.07798
v  396.17798 -6.4545588e-05 32.07798
v  198.08891 -343.10025 32.07798
v  198.08891 -343.10025 -32.07798
v  -198.08908 -343.10016 32.07798
v  -198.08908 -343.10016 -32.07798
v  -396.17798 9.9180572e-05 32.07798
v  -396.17798 9.9180572e-05 -32.07798
v  -198.0889 343.10025 32.07798
v  -198.0889 343.10025 -32.07798
v  198.08902 343.10019 32.07798
v  198.08902 343.10019 -32.07798
v  356.20639 -5.8033391e-05 -8.9610043
v  356.20639 -5.8033391e-05 48.722061
v  178.10313 -308.48383 48.722061
v  178.10313 -308.48383 -8.9610043
v  -178.10326 -308.48373 48.722061
v  -178.10326 -308.48373 -8.9610043
v  -356.20639 8.9173947e-05 48.722061
v  -356.20639 8.9173947e-05 -8.9610043
v  -178.10312 308.48383 48.722061
v  -178.10312 308.48383 -8.9610043
v  178.10321 308.48376 48.722061
v  178.10321 308.48376 -8.9610043

# 0 UV coordinates

# 16 vertex normals
vn 343.10019 -198.08905 0
vn -8.8159635e-05 -396.17798 0
vn -343.10025 -198.0889 0
vn -343.10016 198.0891 0
vn -2.9615887e-12 -1.8178102e-05 32.07798
vn 6.4545588e-05 396.17798 0
vn 343.10019 198.08896 0
vn -4.4423831e-12 -2.7267153e-05 -32.07798
vn 308.48376 -178.10324 0
vn -7.9264944e-05 -356.20639 0
vn -308.48383 -178.10313 0
vn -308.48373 178.10329 0
vn -2.6627851e-12 -1.6344058e-05 28.841534
vn 5.8033391e-05 356.20639 0
vn 308.4838 178.10316 0
vn -3.9941778e-12 -2.4516088e-05 -28.841534

# Mesh 'Cylinder.001' with 8 faces
g Cylinder.001
usemtl DefaultMaterial
f  1//1 2//1 3//1 4//1
f  4//2 3//2 5//2 6//2
f  6//3 5//3 7//3 8//3
f  8//4 7//4 9//4 10//4
f  3//5 2//5 11//5 9//5 7//5 5//5
f  10//6 9//6 11//6 12//6
f  12//7 11//7 2//7 1//7
f  1//8 4//8 6//8 8//8 10//8 12//8

# Mesh 'Cylinder.002' with 8 faces
g Cylinder.002
usemtl DefaultMaterial
f  13//9 14//9 15//9 16//9
f  16//10 15//10 17//10 18//10
f  18//11 17//11 19//11 20//11
f  20//12 19//12 21//12 22//12
f  15//13 14//13 23//13 21//13 19//13 17//13
f  22//14 21//14 23//14 24//14
f  24//15 23//15 14//15 13//15
f  13//16 16//16 18//16 20//16 22//16 24//16

